<svg xmlns="http://www.w3.org/2000/svg" viewBox="0 0 800 1000" role="img" aria-label="Placeholder: replace with a portrait photo of Elisa">
  <!-- PLACEHOLDER IMAGE — replace with: portrait photo of Elisa (approx. 4:5, e.g. 800x1000) -->
  <rect width="800" height="1000" fill="#E1CCDB"/>

  <!-- stylised portrait line-art -->
  <g stroke="#6B004A" stroke-width="10" fill="none" stroke-linecap="round">
    <circle cx="400" cy="380" r="130"/>
    <path d="M180 840 C180 660 320 590 400 590 C480 590 620 660 620 840"/>
    <path d="M300 320 q100 -70 200 0" stroke-width="8"/>
  </g>
  <!-- speech bubble accent (one square corner, bottom-left) -->
  <path d="M560 130 a70 70 0 0 1 70 70 v0 a70 70 0 0 1 -70 70 h-70 v-70 a70 70 0 0 1 70 -70 z" fill="#ED5221"/>

  <!-- what should go here -->
  <g font-family="Arial, Helvetica, sans-serif" text-anchor="middle">
    <text x="400" y="905" font-size="34" font-weight="bold" fill="#6B004A">Replace with: portrait photo of Elisa</text>
    <text x="400" y="945" font-size="24" fill="#6B004A">(warm, informal — like she'd appear in a client call)</text>
  </g>

  <!-- watermark -->
  <g font-family="Arial, Helvetica, sans-serif" font-weight="bold" fill="#6B004A" opacity="0.16" text-anchor="middle">
    <text x="400" y="180" font-size="52" transform="rotate(-30 400 180)">PLACEHOLDER · PLACEHOLDER</text>
    <text x="400" y="700" font-size="52" transform="rotate(-30 400 700)">PLACEHOLDER · PLACEHOLDER</text>
  </g>
  <text x="400" y="520" font-family="Arial, Helvetica, sans-serif" font-weight="bold" font-size="88" fill="#6B004A" opacity="0.32" text-anchor="middle" transform="rotate(-30 400 520)">PLACEHOLDER</text>
</svg>
